<?xml version="1.0" encoding="utf-8"?>
<!-- Generator: Adobe Illustrator 22.0.1, SVG Export Plug-In . SVG Version: 6.00 Build 0)  -->
<svg version="1.1" id="Слой_1" xmlns="http://www.w3.org/2000/svg" xmlns:xlink="http://www.w3.org/1999/xlink" x="0px" y="0px"
	 viewBox="0 0 100 100" style="enable-background:new 0 0 100 100;" xml:space="preserve">
<style type="text/css">
	.st0{display:none;}
	.st1{display:inline;}
</style>
<g id="svg2" inkscape:output_extension="org.inkscape.output.svg.inkscape" inkscape:version="0.92.2 (5c3e80d, 2017-08-06)" sodipodi:docname="Fox_Channel_logo.svg" sodipodi:version="0.32" xmlns:cc="http://creativecommons.org/ns#" xmlns:dc="http://purl.org/dc/elements/1.1/" xmlns:inkscape="http://www.inkscape.org/namespaces/inkscape" xmlns:rdf="http://www.w3.org/1999/02/22-rdf-syntax-ns#" xmlns:sodipodi="http://sodipodi.sourceforge.net/DTD/sodipodi-0.dtd" xmlns:svg="http://www.w3.org/2000/svg" class="st0">
	<title  id="title820">Youtube Music logo</title>
	
		<sodipodi:namedview  bordercolor="#666666" borderopacity="1.0" gridtolerance="10.0" guidetolerance="10.0" id="base" inkscape:current-layer="svg2" inkscape:cx="64.538412" inkscape:cy="31.912007" inkscape:pageopacity="0.0" inkscape:pageshadow="2" inkscape:showpageshadow="false" inkscape:window-height="705" inkscape:window-maximized="1" inkscape:window-width="1366" inkscape:window-x="-8" inkscape:window-y="-8" inkscape:zoom="2.8591284" objecttolerance="10.0" pagecolor="#ffffff" showgrid="false">
		</sodipodi:namedview>
	<defs  class="st1">
		
		
			<inkscape:perspective  id="perspective10" inkscape:persp3d-origin="916 : 264.66667 : 1" inkscape:vp_x="0 : 397 : 1" inkscape:vp_y="0 : 1000 : 0" inkscape:vp_z="1832 : 397 : 1" sodipodi:type="inkscape:persp3d">
			</inkscape:perspective>
	</defs>
	<path id="path819" inkscape:connector-curvature="0" class="st1" d="M49.7,1.3C22.9,1.6,1.4,23.5,1.6,50.3s22,48.4,48.8,48.3
		s48.5-21.8,48.5-48.7v-0.7C98.5,22.5,76.5,1,49.7,1.3z M49.9,24.9L49.9,24.9c13.9-0.1,25.3,11,25.5,24.9v0.3
		c0,13.9-11.2,25.2-25.1,25.2S25.1,64.1,25,50.3C24.8,36.4,36,25,49.9,24.9L49.9,24.9z M50.6,27c-12.7,0-23,10.2-23.1,22.9
		C27.4,62.6,37.6,73,50.3,73.1s23.1-10,23.3-22.7v-0.3C73.6,37.4,63.3,27.1,50.6,27L50.6,27z M41.4,37.8l21.9,12.3l-22.1,12
		L41.4,37.8z"/>
</g>
<g id="Слой_2_1_">
	<path d="M1.7,50C1.8,24.6,21.5,1.5,50.3,1.5c27.4,0,48.7,21.3,48.6,48.8c-0.1,29.1-23.4,48.5-48.7,48.5C23.4,98.7,1.6,76.8,1.7,50z
		 M73.3,37.2C72,36,71,34.8,69.7,34c-4.9-3.3-10.1-3.4-15.4-1c-2.8,1.3-5.4,1.3-8.1,0c-2.6-1.2-5.3-1.8-8.3-1.3
		C31.6,33,26.6,38,25.5,44.9c-1.8,12,2.4,22.1,10.6,30.8c2.2,2.3,5.1,2.8,8,1.5c4.7-2.2,9.1-2.3,13.8,0c2.5,1.2,5.2,1,7.4-0.9
		c4.6-3.9,7.4-9,9.4-14.5C64.4,56.3,64,43.7,73.3,37.2z M61.9,16.7c-7.1,0.6-13,7.5-11.9,13.8C56.4,31.5,63.1,23.2,61.9,16.7z"/>
</g>
</svg>
