<?xml version="1.0" encoding="utf-8"?>
<!-- Generator: Adobe Illustrator 22.0.1, SVG Export Plug-In . SVG Version: 6.00 Build 0)  -->
<svg version="1.1" id="Слой_1" xmlns="http://www.w3.org/2000/svg" xmlns:xlink="http://www.w3.org/1999/xlink" x="0px" y="0px"
	 viewBox="0 0 512 512" style="enable-background:new 0 0 512 512;" xml:space="preserve">
<path d="M256.6,512.2C115.7,512.3,1.3,397.8,1.3,256.9S115.6,1.6,256.6,1.5c140.9,0,255.3,114.3,255.4,255.3
	C512,397.8,397.6,512.2,256.6,512.2z M335,203.7c-1-20.8,1.4-41.8-2.2-62.5c-4.9-28.4-19.1-49.8-47.3-59.2c-29-9.7-58-7.8-86.1,3.6
	c-25.4,10.3-40.6,29.7-47.5,56c-1.6,6.2,0.7,9.7,7,10.6c11.6,1.7,23.4,2.9,34.9,5.2c6.4,1.3,9.7-1.6,12.9-6c1.4-1.9,2-4.2,2.9-6.4
	c4.1-10.8,11.4-18.2,22.7-21.4c23.1-6.5,39.1,5.2,39.6,29.1c0.1,4.7-0.1,9.4,0.4,14.1c0.5,4.4-1.2,5.3-5.2,5.3
	c-20.5,0.1-40.8,2-60.5,7.7c-17.3,5-33.2,12.6-45.2,26.6c-16.4,19.1-19.3,41.7-16.1,65.5c3.9,29.8,26.1,50.7,56,52.9
	c29.8,2.2,55.7-7.1,76.8-28.5c2.6-2.6,3.6-2.9,5.5,0.7c5.2,9.7,12.9,17.3,21.6,23.9c4.1,3.1,8.4,3.4,12.6,0.2
	c11.5-8.7,22.2-18.5,32.7-28.3c2.7-2.5,3-5.8,1-9c-2.4-4-4.8-8.1-7.5-11.9c-4.7-6.5-6.7-13.6-7.2-21.5
	C335.7,234.7,335.5,219.2,335,203.7z M246.5,419.4c42.5-2.8,78.8-11.5,112.1-30.9c8.5-5,16.8-10.5,24.4-16.8c4-3.4,4.9-8.5,2.6-12.7
	c-2-3.8-6.3-5.4-11.5-4c-3.2,0.9-6.4,1.8-9.3,3.2c-17.6,8.1-35.7,14.6-54.6,18.8c-21.8,4.9-44,8.7-66.2,7.2
	c-51-3.4-98.2-19.3-141.1-47.4c-3.3-2.2-6.9-3.8-10.7-4.8c-5.6-1.5-10.1,2.7-9.2,8.4c0.5,3.3,2.6,5.6,4.8,7.9
	c33.4,34.2,73.6,56,120.3,65.9C222.2,417.1,236.4,419.9,246.5,419.4z M425.9,337.9c0.3-11-4-16.3-14.1-18
	c-16.7-2.8-32.7,0.1-48.3,6.3c-3.4,1.3-6.3,3.5-8.3,6.7c-1.8,2.8-2.5,5.8-0.9,8.9c1.6,3,4.5,3.1,7.4,2.9c5.9-0.5,11.8-1.2,17.8-1.7
	c5.6-0.5,11.2-1.6,16.8-0.2c2.7,0.7,4.2,1.9,3.6,4.9c-0.3,1.5-0.4,3.1-0.7,4.6c-1.8,9.6-5.9,18.5-8.8,27.7
	c-2.3,7.3,1.6,11.4,9.1,9.8c5.8-1.2,9.6-5.2,12.5-9.9C420.4,366.5,424.7,351.7,425.9,337.9z"/>
<path d="M272.8,224.4c0.6,13.1-1.6,26.9-9.2,39.7c-7.8,13.3-22.6,20.4-35.5,16.9c-11.2-3-17.6-10.3-19.7-21.5
	c-4.3-23.1,6-40.5,28.3-48c10.5-3.5,21.4-4.6,32.4-5c2.9-0.1,3.9,0.9,3.8,3.8C272.7,214.5,272.8,218.7,272.8,224.4z"/>
</svg>
