<?xml version="1.0" encoding="utf-8"?>
<!-- Generator: Adobe Illustrator 22.0.1, SVG Export Plug-In . SVG Version: 6.00 Build 0)  -->
<svg version="1.1" id="Слой_1" xmlns="http://www.w3.org/2000/svg" xmlns:xlink="http://www.w3.org/1999/xlink" x="0px" y="0px"
	 viewBox="0 0 512 512" style="enable-background:new 0 0 512 512;" xml:space="preserve">
<path d="M144.7,371c12.2,8.3,36.3-0.6,36.3-18.6v-29.3l-32.6,13C133.7,342.1,131.5,362,144.7,371z"/>
<path d="M294.7,341c12.2,8.3,36.3-0.6,36.3-18.6v-29.3l-32.6,13C283.7,312.1,281.5,332,294.7,341z"/>
<path d="M256,0C115.4,0,0,115.4,0,256s115.4,256,256,256s256-115.4,256-256S396.6,0,256,0z M361,322.4c0,31-27.5,52-55.2,52
	c-27.4,0-49.8-22.2-49.8-49.8c0-20.5,12.3-38.6,31.3-46.3l43.7-17.5v-61.5l-120,24v129.1c0,31-27.5,52-55.2,52
	c-27.4,0-49.8-22.2-49.8-49.8c0-20.5,12.3-38.6,31.3-46.3l43.7-17.5V151c0-7.1,5.1-13.3,12.1-14.7l150-30c4.5-0.8,9,0.3,12.5,3.1
	c3.5,2.9,5.5,7.1,5.5,11.6v201.4H361z"/>
<path d="M211,192.7l120-24v-29.4l-120,24V192.7z"/>
</svg>
