<?xml version="1.0" encoding="utf-8"?>
<!-- Generator: Adobe Illustrator 22.0.1, SVG Export Plug-In . SVG Version: 6.00 Build 0)  -->
<svg version="1.1" id="Слой_1" xmlns="http://www.w3.org/2000/svg" xmlns:xlink="http://www.w3.org/1999/xlink" x="0px" y="0px"
	 viewBox="0 0 100 100" style="enable-background:new 0 0 100 100;" xml:space="preserve">
<style type="text/css">
	.st0{display:none;}
	.st1{display:inline;}
</style>
<g id="Слой_2_1_" class="st0">
	<rect x="-29" y="-22" class="st1" width="158" height="150"/>
</g>
<g id="Слой_1_1_">
	
		<g id="YouTube_Music" inkscape:output_extension="org.inkscape.output.svg.inkscape" inkscape:version="0.92.2 (5c3e80d, 2017-08-06)" sodipodi:docname="Fox_Channel_logo.svg" sodipodi:version="0.32" xmlns:cc="http://creativecommons.org/ns#" xmlns:dc="http://purl.org/dc/elements/1.1/" xmlns:inkscape="http://www.inkscape.org/namespaces/inkscape" xmlns:rdf="http://www.w3.org/1999/02/22-rdf-syntax-ns#" xmlns:sodipodi="http://sodipodi.sourceforge.net/DTD/sodipodi-0.dtd" xmlns:svg="http://www.w3.org/2000/svg" class="st0">
		<title  id="title820">Youtube Music logo</title>
		
			<sodipodi:namedview  bordercolor="#666666" borderopacity="1.0" gridtolerance="10.0" guidetolerance="10.0" id="base" inkscape:current-layer="svg2" inkscape:cx="64.538412" inkscape:cy="31.912007" inkscape:pageopacity="0.0" inkscape:pageshadow="2" inkscape:showpageshadow="false" inkscape:window-height="705" inkscape:window-maximized="1" inkscape:window-width="1366" inkscape:window-x="-8" inkscape:window-y="-8" inkscape:zoom="2.8591284" objecttolerance="10.0" pagecolor="#ffffff" showgrid="false">
			</sodipodi:namedview>
		<defs  class="st1">
			
			
				<inkscape:perspective  id="perspective10" inkscape:persp3d-origin="916 : 264.66667 : 1" inkscape:vp_x="0 : 397 : 1" inkscape:vp_y="0 : 1000 : 0" inkscape:vp_z="1832 : 397 : 1" sodipodi:type="inkscape:persp3d">
				</inkscape:perspective>
		</defs>
		<path id="path819" inkscape:connector-curvature="0" class="st1" d="M49.7,1.3C22.9,1.6,1.4,23.5,1.6,50.3s22,48.4,48.8,48.3
			s48.5-21.8,48.5-48.7v-0.7C98.5,22.5,76.5,1,49.7,1.3z M49.9,24.9L49.9,24.9c13.9-0.1,25.3,11,25.5,24.9v0.3
			c0,13.9-11.2,25.2-25.1,25.2S25.1,64.1,25,50.3C24.8,36.4,36,25,49.9,24.9L49.9,24.9z M50.6,27c-12.7,0-23,10.2-23.1,22.9
			C27.4,62.6,37.6,73,50.3,73.1s23.1-10,23.3-22.7v-0.3C73.6,37.4,63.3,27.1,50.6,27L50.6,27z M41.4,37.8l21.9,12.3l-22.1,12
			L41.4,37.8z"/>
	</g>
	<g id="Apple_Music" class="st0">
		<path class="st1" d="M1.7,50C1.8,24.6,21.5,1.5,50.3,1.5c27.4,0,48.7,21.3,48.6,48.8c-0.1,29.1-23.4,48.5-48.7,48.5
			C23.4,98.7,1.6,76.8,1.7,50z M73.3,37.2C72,36,71,34.8,69.7,34c-4.9-3.3-10.1-3.4-15.4-1c-2.8,1.3-5.4,1.3-8.1,0
			c-2.6-1.2-5.3-1.8-8.3-1.3C31.6,33,26.6,38,25.5,44.9c-1.8,12,2.4,22.1,10.6,30.8c2.2,2.3,5.1,2.8,8,1.5c4.7-2.2,9.1-2.3,13.8,0
			c2.5,1.2,5.2,1,7.4-0.9c4.6-3.9,7.4-9,9.4-14.5C64.4,56.3,64,43.7,73.3,37.2z M61.9,16.7c-7.1,0.6-13,7.5-11.9,13.8
			C56.4,31.5,63.1,23.2,61.9,16.7z"/>
	</g>
	<path id="Google_Play" class="st0" d="M11.2,97.1l42.6-42.4l15,15l-50.6,28c-1.9,1.1-4.3,1.1-6.2,0C12,97.7,11.2,97.1,11.2,97.1z
		 M49.5,50.4L8.9,90.9V10L49.5,50.4z M74.9,33.7l19.8,11c1.9,1.1,3.2,3.1,3.2,5.3s-1.2,4.2-3.2,5.3L74.3,66.6L58.1,50.4L74.9,33.7z
		 M10.8,3.3c0.4-0.4,0.8-0.7,1.2-0.9c1.9-1.1,4.3-1.1,6.2,0l51.1,28.4L53.8,46.1L10.8,3.3z"/>
	<path id="Spotify" d="M78.9,44.6C63.2,35.3,37.2,34.4,22.2,39c-2.4,0.7-5-0.6-5.7-3c-0.7-2.4,0.6-5,3-5.7c17.2-5.2,45.9-4.2,64,6.5
		c2.2,1.3,2.9,4.1,1.6,6.3C83.8,45.1,81,45.8,78.9,44.6z M78.4,58.4c-1.1,1.8-3.4,2.4-5.2,1.3C60,51.6,40,49.3,24.5,54
		c-2,0.6-4.1-0.5-4.7-2.5s0.5-4.1,2.5-4.7C40,41.3,62,43.9,77.1,53.2C78.9,54.3,79.5,56.6,78.4,58.4z M72.4,71.7
		c-0.9,1.4-2.7,1.9-4.2,1c-11.5-7-25.9-8.6-42.9-4.7c-1.6,0.4-3.3-0.7-3.6-2.3c-0.4-1.6,0.6-3.3,2.3-3.6c18.6-4.2,34.5-2.4,47.4,5.4
		C72.8,68.4,73.3,70.3,72.4,71.7z M50,1.3C23,1.3,1.2,23.1,1.2,50.1S23.1,98.9,50,98.9c27,0,48.8-21.8,48.8-48.8S77,1.3,50,1.3z"/>
</g>
<g id="Слой_3" class="st0">
</g>
</svg>
