<?xml version="1.0" encoding="utf-8"?>
<!-- Generator: Adobe Illustrator 22.0.1, SVG Export Plug-In . SVG Version: 6.00 Build 0)  -->
<svg version="1.1" id="Слой_1" xmlns="http://www.w3.org/2000/svg" xmlns:xlink="http://www.w3.org/1999/xlink" x="0px" y="0px"
	 viewBox="0 0 48 48" style="enable-background:new 0 0 48 48;" xml:space="preserve">
<path d="M24,0C10.7,0,0,10.7,0,24s10.7,24,24,24s24-10.7,24-24S37.3,0,24,0z M19.1,21.6c-0.8,0.8-1.6,1.6-2.4,2.4l0,0
	c-0.8,0.8-1.6,1.6-2.4,2.4c-0.8-0.8-1.6-1.6-2.4-2.4c-0.8-0.8-1.6-1.6-2.4-2.4c0.1-0.1,0.1-0.2,0.2-0.3l0.1-0.1
	c0.6-0.6,1.2-1.2,1.8-1.8l0,0c0.9-0.9,1.8-1.8,2.6-2.7h0.1c0.3,0.3,0.6,0.6,0.9,0.9c0.2,0.2,0.4,0.3,0.5,0.5L19.1,21.6L19.1,21.6z
	 M28.7,31.4C28.7,31.5,28.6,31.5,28.7,31.4c-0.7,0.7-1.2,1.2-1.8,1.8c-0.6,0.6-1.1,1.1-1.7,1.7c-0.1,0.1-0.3,0.3-0.4,0.4
	c-0.2,0.2-0.4,0.4-0.7,0.6c-0.3-0.3-0.6-0.6-0.9-0.9c-0.2-0.2-0.4-0.4-0.6-0.6c-0.3-0.3-0.5-0.5-0.8-0.8c-0.8-0.8-1.6-1.6-2.4-2.4
	c0,0,0,0,0-0.1c0,0,0,0,0-0.1c0.5-0.5,1-1,1.6-1.6c1-1,2.1-2.1,3.1-3.1h0.1l0,0c1.6,1.6,3.1,3.2,4.7,4.7
	C28.8,31.3,28.7,31.4,28.7,31.4z M36,23.9L36,23.9L36,23.9L36,23.9L36,23.9c-0.8,0.8-1.6,1.6-2.5,2.5l-4.6-4.6c0,0,0,0-0.1-0.1
	c0,0,0,0-0.1-0.1c0,0,0,0-0.1,0.1l0,0l0,0c-0.8,0.8-1.5,1.5-2.3,2.3s-1.5,1.5-2.3,2.3c-0.7-0.7-1.4-1.4-2.1-2.1
	c-0.9-0.9-1.8-1.8-2.7-2.6c0.8-0.9,1.7-1.7,2.5-2.5l0,0c0.8-0.8,1.5-1.5,2.3-2.3h0.1c0,0.1,0.1,0.1,0.1,0.2c0.6,0.6,1.2,1.2,1.8,1.8
	c0.9,0.9,1.8,1.8,2.7,2.7c0.5-0.5,0.9-0.9,1.4-1.4c0.3-0.3,0.6-0.6,1-1c0.3-0.3,0.6-0.6,0.8-0.8l0,0l0,0c0.5-0.5,1-1,1.5-1.5h0.1
	c0.2,0.2,0.4,0.4,0.6,0.6c0.1,0.1,0.2,0.2,0.4,0.4l1.2,1.2l2.4,2.4c0,0,0,0,0.1,0.1c0.1,0,0.1,0.1,0.1,0.2
	C37.5,22.4,36.7,23.1,36,23.9z"/>
</svg>
