<?xml version="1.0" encoding="utf-8"?>
<!-- Generator: Adobe Illustrator 22.0.1, SVG Export Plug-In . SVG Version: 6.00 Build 0)  -->
<svg version="1.1"
	 id="svg2" inkscape:output_extension="org.inkscape.output.svg.inkscape" inkscape:version="0.92.2 (5c3e80d, 2017-08-06)" sodipodi:docname="Fox_Channel_logo.svg" sodipodi:version="0.32" xmlns:cc="http://creativecommons.org/ns#" xmlns:dc="http://purl.org/dc/elements/1.1/" xmlns:inkscape="http://www.inkscape.org/namespaces/inkscape" xmlns:rdf="http://www.w3.org/1999/02/22-rdf-syntax-ns#" xmlns:sodipodi="http://sodipodi.sourceforge.net/DTD/sodipodi-0.dtd" xmlns:svg="http://www.w3.org/2000/svg"
	 xmlns="http://www.w3.org/2000/svg" xmlns:xlink="http://www.w3.org/1999/xlink" x="0px" y="0px" viewBox="0 0 100 100"
	 style="enable-background:new 0 0 100 100;" xml:space="preserve">
<title  id="title820">Youtube Music logo</title>
<sodipodi:namedview  bordercolor="#666666" borderopacity="1.0" gridtolerance="10.0" guidetolerance="10.0" id="base" inkscape:current-layer="svg2" inkscape:cx="64.538412" inkscape:cy="31.912007" inkscape:pageopacity="0.0" inkscape:pageshadow="2" inkscape:showpageshadow="false" inkscape:window-height="705" inkscape:window-maximized="1" inkscape:window-width="1366" inkscape:window-x="-8" inkscape:window-y="-8" inkscape:zoom="2.8591284" objecttolerance="10.0" pagecolor="#ffffff" showgrid="false">
	</sodipodi:namedview>
<defs>
	
	
		<inkscape:perspective  id="perspective10" inkscape:persp3d-origin="916 : 264.66667 : 1" inkscape:vp_x="0 : 397 : 1" inkscape:vp_y="0 : 1000 : 0" inkscape:vp_z="1832 : 397 : 1" sodipodi:type="inkscape:persp3d">
		</inkscape:perspective>
</defs>
<path id="path819" inkscape:connector-curvature="0" d="M49.7,1.3C22.9,1.6,1.4,23.5,1.6,50.3s22,48.4,48.8,48.3
	s48.5-21.8,48.5-48.7v-0.7C98.5,22.5,76.5,1,49.7,1.3z M49.9,24.9L49.9,24.9c13.9-0.1,25.3,11,25.5,24.9v0.3
	c0,13.9-11.2,25.2-25.1,25.2S25.1,64.1,25,50.3C24.8,36.4,36,25,49.9,24.9L49.9,24.9z M50.6,27c-12.7,0-23,10.2-23.1,22.9
	C27.4,62.6,37.6,73,50.3,73.1s23.1-10,23.3-22.7v-0.3C73.6,37.4,63.3,27.1,50.6,27L50.6,27z M41.4,37.8l21.9,12.3l-22.1,12
	L41.4,37.8z"/>
</svg>
