<?xml version="1.0" encoding="utf-8"?>
<!-- Generator: Adobe Illustrator 22.0.1, SVG Export Plug-In . SVG Version: 6.00 Build 0)  -->
<svg version="1.1" id="Слой_1" xmlns="http://www.w3.org/2000/svg" xmlns:xlink="http://www.w3.org/1999/xlink" x="0px" y="0px"
	 viewBox="0 0 100 100" style="enable-background:new 0 0 100 100;" xml:space="preserve">
<style type="text/css">
	.st0{display:none;}
	.st1{display:inline;}
</style>
<g id="Слой_2_1_" class="st0">
	<rect x="-29" y="-22" class="st1" width="158" height="150"/>
</g>
<g>
	<path d="M64.2,30.5c1-0.6,2-1.2,3.1-1.7c-9.7-9-24.7-9-34.4,0c1,0.5,2.1,1.1,3.1,1.7C44.8,26,55.4,26,64.2,30.5z"/>
	<path d="M35.9,37.7c-3-2.5-6.6-4.4-10.4-5.5v24.3c0,32.7,49.3,32.9,49.3,0V32.2c-3.9,1.1-7.5,2.9-10.5,5.4
		C55.8,31.7,44.4,31.6,35.9,37.7z M35.4,63.2c-4-2.3-3.8-5.9-3.9-7.1c11.9-0.1,15-0.6,17,8.3c0,0-5.4-0.1-9.2-0.2
		C37.7,64.1,36,63.6,35.4,63.2z M42.9,76c0,0,0.1-0.8,0.6-1.4c0.5-0.8,1-1,1-1c3.6,1,7.7,1.1,11.4,0c0,0,0.6,0.3,1,1.1
		c0.5,0.7,0.5,1.3,0.5,1.3C53,78.6,47.3,78.6,42.9,76z M50.1,72.2c-2.9-1-5.4-2.5-7.6-4.6h15.1C55.5,69.7,53,71.3,50.1,72.2z
		 M68.8,56.1c-0.1,1.2,0,4.9-3.9,7.1c-0.7,0.4-2.3,0.9-3.8,1c-3.8,0.2-9.2,0.2-9.2,0.2C53.8,55.5,56.8,56,68.8,56.1z"/>
	<path d="M50,1.3C23,1.3,1.2,23.1,1.2,50.1S23.1,98.9,50,98.9c27,0,48.8-21.8,48.8-48.8S77,1.3,50,1.3z M80.7,59.7l0,0.3
		c-3.9,35.9-57.3,36.6-61.2-0.2c-8.8-5.6-8.8-18.3,0-23.8V25.5c2.6,0.1,5.2,0.5,7.6,1.1c12.3-13.8,33.9-13.8,46.2,0
		c2.4-0.7,4.9-1,7.5-1.1v10.4C89.6,41.4,89.6,54.2,80.7,59.7z"/>
</g>
<path id="Spotify" class="st0" d="M78.9,44.6C63.2,35.3,37.2,34.4,22.2,39c-2.4,0.7-5-0.6-5.7-3c-0.7-2.4,0.6-5,3-5.7
	c17.2-5.2,45.9-4.2,64,6.5c2.2,1.3,2.9,4.1,1.6,6.3C83.8,45.1,81,45.8,78.9,44.6z M78.4,58.4c-1.1,1.8-3.4,2.4-5.2,1.3
	C60,51.6,40,49.3,24.5,54c-2,0.6-4.1-0.5-4.7-2.5s0.5-4.1,2.5-4.7C40,41.3,62,43.9,77.1,53.2C78.9,54.3,79.5,56.6,78.4,58.4z
	 M72.4,71.7c-0.9,1.4-2.7,1.9-4.2,1c-11.5-7-25.9-8.6-42.9-4.7c-1.6,0.4-3.3-0.7-3.6-2.3c-0.4-1.6,0.6-3.3,2.3-3.6
	c18.6-4.2,34.5-2.4,47.4,5.4C72.8,68.4,73.3,70.3,72.4,71.7z M50,1.3C23,1.3,1.2,23.1,1.2,50.1S23.1,98.9,50,98.9
	c27,0,48.8-21.8,48.8-48.8S77,1.3,50,1.3z"/>
<path id="Deezer" class="st0" d="M50,0.9C23,0.9,1.1,22.8,1.1,49.8S23,98.6,50,98.6s48.9-21.9,48.9-48.9S77,0.9,50,0.9z M26.8,70.1
	H13.5v-4h13.3V70.1z M26.8,64.9H13.5v-4h13.3V64.9z M26.8,59.6H13.5v-4h13.3V59.6z M26.8,54.4H13.5v-4h13.3V54.4z M26.8,49.2H13.5
	v-4h13.3C26.8,45.1,26.8,49.2,26.8,49.2z M41.7,70.1H28.4v-4h13.3V70.1z M41.7,64.9H28.4v-4h13.3V64.9z M41.7,59.6H28.4v-4h13.3
	V59.6z M56.7,70.1H43.3v-4h13.3L56.7,70.1L56.7,70.1z M56.7,64.9H43.3v-4h13.3L56.7,64.9L56.7,64.9z M56.7,59.6H43.3v-4h13.3
	L56.7,59.6L56.7,59.6z M56.7,54.4H43.3v-4h13.3L56.7,54.4L56.7,54.4z M56.7,49.2H43.3v-4h13.3L56.7,49.2L56.7,49.2z M56.7,43.9H43.3
	v-4h13.3L56.7,43.9L56.7,43.9z M56.7,38.7H43.3v-4h13.3L56.7,38.7L56.7,38.7z M71.6,70.1H58.3v-4h13.3V70.1L71.6,70.1z M71.6,64.9
	H58.3v-4h13.3V64.9L71.6,64.9z M71.6,59.6H58.3v-4h13.3V59.6L71.6,59.6z M71.6,54.4H58.3v-4h13.3V54.4L71.6,54.4z M71.6,49.2H58.3
	v-4h13.3V49.2L71.6,49.2z M86.5,70.1H73.2v-4h13.3V70.1L86.5,70.1z M86.5,64.9H73.2v-4h13.3V64.9L86.5,64.9z M86.5,59.6H73.2v-4
	h13.3V59.6L86.5,59.6z M86.5,54.4H73.2v-4h13.3V54.4L86.5,54.4z M86.5,49.2H73.2v-4h13.3V49.2L86.5,49.2z M86.5,43.9H73.2v-4h13.3
	V43.9L86.5,43.9z M86.5,38.7H73.2v-4h13.3V38.7L86.5,38.7z M73.2,33.4v-4h13.3v4H73.2z"/>
<path id="Google_Play_1_" class="st0" d="M50,1.3C23.1,1.3,1.3,23.1,1.3,50S23.1,98.7,50,98.7S98.7,76.9,98.7,50S76.9,1.3,50,1.3z
	 M31.1,77.6L56,52.8l8.8,8.8L35.1,77.9c-1.1,0.6-2.5,0.6-3.6,0C31.5,77.9,31.1,77.6,31.1,77.6z M53.5,50.2L29.7,73.9V26.5L53.5,50.2
	z M68.3,40.5l11.6,6.4c1.1,0.6,1.8,1.8,1.8,3.1s-0.7,2.5-1.8,3.1L68,59.7l-9.5-9.5L68.3,40.5z M30.8,22.6l0.7-0.5
	c1.1-0.6,2.5-0.6,3.6,0l30,16.6l-9.1,9L30.8,22.6z"/>
<path id="Apple_Music_1_" class="st0" d="M50.5,1.3C23.7,1.3,1.8,23.1,1.8,50s21.8,48.7,48.7,48.7S99.3,76.9,99.3,50
	S77.4,1.3,50.5,1.3z M61.9,17.5c0.7,6.6-5.2,13.6-11.4,13.1C49.7,24.8,55.2,17.8,61.9,17.5z M61,74.3c-3.8,0.1-5-2.3-9.4-2.3
	c-4.3,0-5.7,2.2-9.3,2.3c-6.1,0.2-15.5-13.8-15.5-26c0-11.2,7.8-16.8,14.7-16.9c3.7-0.1,7.1,2.5,9.4,2.5c2.2,0,6.5-3.1,10.9-2.6
	c1.8,0.1,7,0.7,10.4,5.6c-8.9,5.8-7.5,17.9,2,22.3C72.4,64.6,66.8,74.2,61,74.3z"/>
<path id="YouTube_1_" class="st0" d="M50.5,1.3c-27,0-48.8,21.9-48.8,48.8s21.9,48.8,48.8,48.8S99.3,77,99.3,50.1S77.5,1.3,50.5,1.3
	z M68.6,70c-8.5,0.6-27.6,0.6-36.1,0c-9.3-0.6-10.3-5.2-10.4-19.9c0.1-14.8,1.2-19.3,10.4-19.9c8.5-0.6,27.6-0.6,36.1,0
	c9.3,0.6,10.3,5.2,10.4,19.9C78.9,64.9,77.9,69.4,68.6,70z M42.4,40.6l20,9.5l-20,9.5V40.6z"/>
</svg>
